PathFileType	4	(X/Y/Z)	Kaydara	
DataRate	CameraRate	NumFrames	NumMarkers	Units	OrigDataRate	OrigDataStartFrame	OrigNumFrames	
240.00	240.00	4	72	mm	240.00	90	359	
Frame#	Time	Hips			RightUpLeg			RightLeg			RightFoot			RightFoot_End			LeftUpLeg			LeftLeg			LeftFoot			LeftFoot_End			Spine			Spine1			Spine2			Spine3			Neck			Head			Head_End			RightShoulder			RightArm			RightForeArm			RightHand			RightHandThumb1			RightHandThumb2			RightHandThumb3			RightHandThumb3_End			RightInHandIndex			RightHandIndex1			RightHandIndex2			RightHandIndex3			RightHandIndex3_End			RightInHandMiddle			RightHandMiddle1			RightHandMiddle2			RightHandMiddle3			RightHandMiddle3_End			RightInHandRing			RightHandRing1			RightHandRing2			RightHandRing3			RightHandRing3_End			RightInHandPinky			RightHandPinky1			RightHandPinky2			RightHandPinky3			RightHandPinky3_End			LeftShoulder			LeftArm			LeftForeArm			LeftHand			LeftHandThumb1			LeftHandThumb2			LeftHandThumb3			LeftHandThumb3_End			LeftInHandIndex			LeftHandIndex1			LeftHandIndex2			LeftHandIndex3			LeftHandIndex3_End			LeftInHandMiddle			LeftHandMiddle1			LeftHandMiddle2			LeftHandMiddle3			LeftHandMiddle3_End			LeftInHandRing			LeftHandRing1			LeftHandRing2			LeftHandRing3			LeftHandRing3_End			LeftInHandPinky			LeftHandPinky1			LeftHandPinky2			LeftHandPinky3			LeftHandPinky3_End			
		X1	Y1	Z1	X2	Y2	Z2	X3	Y3	Z3	X4	Y4	Z4	X5	Y5	Z5	X6	Y6	Z6	X7	Y7	Z7	X8	Y8	Z8	X9	Y9	Z9	X10	Y10	Z10	X11	Y11	Z11	X12	Y12	Z12	X13	Y13	Z13	X14	Y14	Z14	X15	Y15	Z15	X16	Y16	Z16	X17	Y17	Z17	X18	Y18	Z18	X19	Y19	Z19	X20	Y20	Z20	X21	Y21	Z21	X22	Y22	Z22	X23	Y23	Z23	X24	Y24	Z24	X25	Y25	Z25	X26	Y26	Z26	X27	Y27	Z27	X28	Y28	Z28	X29	Y29	Z29	X30	Y30	Z30	X31	Y31	Z31	X32	Y32	Z32	X33	Y33	Z33	X34	Y34	Z34	X35	Y35	Z35	X36	Y36	Z36	X37	Y37	Z37	X38	Y38	Z38	X39	Y39	Z39	X40	Y40	Z40	X41	Y41	Z41	X42	Y42	Z42	X43	Y43	Z43	X44	Y44	Z44	X45	Y45	Z45	X46	Y46	Z46	X47	Y47	Z47	X48	Y48	Z48	X49	Y49	Z49	X50	Y50	Z50	X51	Y51	Z51	X52	Y52	Z52	X53	Y53	Z53	X54	Y54	Z54	X55	Y55	Z55	X56	Y56	Z56	X57	Y57	Z57	X58	Y58	Z58	X59	Y59	Z59	X60	Y60	Z60	X61	Y61	Z61	X62	Y62	Z62	X63	Y63	Z63	X64	Y64	Z64	X65	Y65	Z65	X66	Y66	Z66	X67	Y67	Z67	X68	Y68	Z68	X69	Y69	Z69	X70	Y70	Z70	X71	Y71	Z71	X72	Y72	Z72	

90	0.371	2198.941	914.58397	126.699	2255.316293844878	898.1950420551489	53.490724557176534	2160.471192302762	501.3785476012944	-41.67969990143287	2141.5870524014376	109.84476280208402	-117.00602066815938	1989.905692244345	33.07952603889933	-29.609881224830268	2157.127159574047	904.8825829193769	211.15374336394729	2065.867274605643	503.0570760506127	286.1328768301769	1994.0230107859654	78.74302383302359	378.1432513500164	1872.3391992088114	-3.5455276368793647	255.82853083962436	2131.112787631365	1031.6527963367446	79.79470925512476	2068.7748366176615	1087.9098712297314	30.867782822192925	2001.0126379818116	1139.3822657626658	-23.903809141939586	1932.6026829195885	1176.9354559072817	-81.7361187085556	1858.3864570551136	1217.559127746221	-141.8371961685189	1789.1245453003298	1254.9017862231772	-193.94262050966526	1649.4084326686952	1331.726138631461	-200.50266928168892	1904.0291002378647	1206.0655022158087	-146.1145772278523	1967.0690946333937	1198.4777643304717	-262.7983580874475	2051.4251923231145	936.117609199387	-303.0859545980219	2063.536301427518	804.8033172958678	-518.4112104391813	2070.962625661312	816.8764529541286	-547.6121818555215	2054.290095663809	821.0597391898569	-577.0998618661164	2042.4891160807836	820.7122971472777	-597.5074977442367	2032.4884089179711	817.6332288529038	-614.4113038054414	2073.499855053428	806.1536814968102	-550.2922581880475	2077.0294284320407	796.737439012558	-596.557754519241	2065.9298188320877	790.9421147470176	-626.3058564325518	2051.469445365151	791.1417057350053	-639.9703586651009	2034.4013160607121	793.8718465141343	-648.0225525766049	2072.2152683121208	797.6489020393334	-548.2185584368409	2074.966944499173	783.8641266553111	-592.2235557308602	2062.6571867122893	776.4495742956806	-624.257909729394	2045.1163027131047	776.166996960846	-640.5388324492566	2026.3944921795853	778.8998376385609	-649.2498219204574	2071.3547501543203	791.8496805031008	-545.6060872859284	2073.474934833051	774.3712861186957	-582.8727734841012	2062.5375974979347	766.8159970208048	-610.2881320449859	2045.5074888805432	765.9631276256436	-625.7237016763869	2027.851886023474	768.2576957032511	-633.7869151836815	2069.1806334195317	785.6818313502151	-540.9929458677669	2070.2461183207056	765.7416273538851	-572.4561810319842	2061.1529746142146	758.0632852954614	-593.4573649694761	2048.569127559417	756.6535146908553	-604.2556098318431	2032.8358926269618	758.2328094150951	-611.1332671154245	1861.9267608670068	1202.211499648789	-96.42911009574134	1809.322591303371	1133.9140749670926	5.169341472418814	1951.2877353366239	978.2769308791597	-177.81971689575911	2056.1515447324377	872.9475994866422	-403.55054392727675	2085.767200598489	884.0040768333207	-422.7436802758583	2125.3388061522055	875.3481039047006	-431.7491666076937	2151.978346548985	866.1725551250712	-438.9074879972475	2173.401149208337	855.830671032329	-445.63379547728147	2084.3838843348776	874.8276738384137	-429.39756520754577	2127.631303400761	861.295600828067	-464.766966684263	2162.0500809910573	846.0443777602778	-480.2271822649467	2183.2130784989795	836.974263505381	-481.3474636733212	2200.571069189286	829.7445464048645	-476.54706175107344	2080.5869423168365	866.4605796237696	-430.1436777684514	2120.7141713919477	848.7377042353959	-465.04810703651304	2157.636022119301	831.0281718667411	-481.89056264499226	2182.8632589773024	819.5731921507646	-483.2288135748743	2201.7077032592147	811.4135655218121	-477.9698189655594	2076.7595029943063	860.9305192826213	-429.87401290557244	2109.278217620805	840.3520354123197	-461.2307405427895	2140.7467233717443	823.8528746579341	-475.8261859310266	2164.7019014356915	812.2388753285438	-477.07214375805	2182.241065157905	804.2991354055818	-472.1060742989528	2071.420519624262	854.6654850449428	-427.7052223385431	2097.8304377272616	832.0449875907993	-455.4947465785702	2121.775831524417	817.2634061279789	-466.91287896108025	2138.6425173085504	808.0328106469889	-467.6913867579736	2153.830414100334	800.5625068236054	-463.2172705889486
91	0.375	2198.941	914.58397	126.699	2255.3193326325727	898.1944239818176	53.49625724869758	2160.4382352069747	501.3908855361731	-41.69125325693189	2141.4633575973435	109.85221973129273	-116.97455739416407	1989.7852892401822	33.08973740712519	-29.570293613096243	2157.1215193594862	904.8821798370595	211.14882755456864	2065.865705690889	503.0485888955632	286.088089610914	1993.9937546515364	78.72970394322049	378.0466196994067	1872.3108811697637	-3.556429028266166	255.72934790708823	2131.1242637188243	1031.6573928241723	79.79168122910886	2068.798606301301	1087.9160722892998	30.85194212643357	2001.0483786482728	1139.3900289241426	-23.932223246280277	1932.646544389956	1176.9442877023519	-81.77335356639144	1858.4350402122961	1217.563184605725	-141.8831639806574	1789.1750940960737	1254.8983314347877	-193.99601448888788	1649.4008517597103	1331.6179366241076	-200.5272611111164	1904.0564582552356	1206.0266167576942	-146.16041976545733	1967.0562870398412	1198.3302694695576	-262.7440949633236	2051.2640538274436	936.1518668111096	-302.78892366920536	2063.2103937939487	804.9107818249156	-517.776931298658	2070.6037089693737	817.0081019310869	-546.902349849098	2053.9492624337627	821.2167149574896	-576.3222971984126	2042.164442187492	820.8865083318536	-596.687980209201	2032.1802481656728	817.8214734245782	-613.5612797756196	2073.1461228978733	806.2863147676899	-549.5938882281141	2076.6661320430985	796.9062751156879	-595.7821257215879	2065.58423270689	791.1351687345169	-625.4781121095483	2051.146084124713	791.3467898282961	-639.1128587514852	2034.1039114991015	794.084848747044	-647.1422088248195	2071.8727140377114	797.7791515574359	-547.5371507070156	2074.6211025999055	784.0283999730592	-591.4759630267391	2062.3322081858446	776.6398372378	-623.4559360685519	2044.8188734269338	776.3715702530311	-639.7021560091131	2026.1258240435095	779.1129750958921	-648.3887327616923	2071.020111726785	791.9773380615993	-544.9386320971695	2073.143561406166	774.5272272632818	-582.158126153512	2062.2259859292253	766.9940953563369	-609.5287357414946	2045.2232906330664	766.1547624644821	-624.9322401342197	2027.5951307200723	768.4572578079709	-632.973165151924	2068.8571778885075	785.8053369794715	-540.3437973473144	2069.9317888916257	765.888572015637	-571.7750156866632	2060.8569170582923	758.2270769308254	-592.744705892702	2048.294251506379	756.82674789833	-603.5216623182353	2032.5860085868933	758.4128115064323	-610.3807865140947	1861.9944018261288	1202.2629182400417	-96.46983545827172	1809.4351523932428	1134.1466625245207	5.131738070462337	1951.158706267866	978.4706195018695	-177.64116234441587	2054.980308790278	871.1697481913529	-402.02941652661525	2084.5257498308697	882.2072163937859	-421.1926489023052	2124.056293188519	873.564960877124	-430.1758383844677	2150.6741257821664	864.3994926884449	-437.3135903679626	2172.0847218943077	854.0664655227807	-444.01843890997014	2083.15888294685	873.0274552831956	-427.82257515816946	2126.3574608335707	859.478371125737	-463.10454604509454	2160.7518499954226	844.2340704010007	-478.5206818063349	2181.903136893269	835.1794438445829	-479.6336488815951	2199.253759274903	827.9700933131228	-474.8407439007689	2079.3828293403944	864.6632820259177	-428.5588131346139	2119.473712253382	846.9253927707537	-463.37261844971164	2156.3718754779234	829.2238750568733	-480.1659758440316	2181.586389072647	817.7878062676008	-481.49492514589366	2200.4234547996803	809.6505705742862	-476.2439013186407	2075.5713266995745	859.1355294746372	-428.2841838435224	2108.0711260302414	838.5450364241809	-459.5547397987543	2139.5220375320255	822.0533614201827	-474.1065140621014	2163.466558090336	810.4578682870036	-475.3430345821249	2180.999553418437	802.5393074703189	-470.3842413035099	2070.252623037285	852.8751495522822	-426.113939427059	2096.6574676153973	830.2458616084032	-453.82276505509344	2120.5936089039255	815.471108591876	-465.2049384734586	2137.4548650370607	806.2544152728897	-465.9760842693269	2152.6386453340083	798.8031035822981	-461.5081389408668
92	0.379	2198.941	914.58397	126.699	2255.2987117965345	898.1685974205715	53.491699866778355	2160.3939521043667	501.37343254210367	-41.706114631306875	2141.4216988318085	109.83479439175376	-116.98779482839743	1989.7461604208447	33.07569540369489	-29.57617435480085	2157.136700369511	904.9058068069108	211.1549347891343	2065.8795131564193	503.06515474399276	286.05336819980965	1993.9837832396959	78.7380898352242	377.94662365439495	1872.3018676075983	-3.544146571525321	255.62578282818063	2131.1494579797272	1031.6684535451225	79.78504303866403	2068.8355768988954	1087.9280461655794	30.83237973984452	2001.0980191164085	1139.402504236972	-23.966204487232847	1932.7096347483905	1176.9580029131662	-81.82251369349221	1858.5099851326854	1217.574513278982	-141.94849102099926	1789.259325755202	1254.905477052645	-194.07633007487945	1649.4852570323465	1331.6218738544242	-200.6073948369417	1904.117695734743	1206.0156875777207	-146.21663146618036	1967.0440355784792	1198.1609553629926	-262.70823179583977	2051.0898670102806	936.1646479752773	-302.4952881970705	2062.902209292018	804.9984403551767	-517.1579152832048	2070.252641905066	817.1116087387991	-546.2021663449292	2053.613107698181	821.3370470519432	-575.5428090711364	2041.8437162951263	821.0189181727536	-595.8575914496778	2031.876697018448	817.9642660064777	-612.6921689654101	2072.8043084128167	806.3929072806483	-548.9016630451275	2076.312830841196	797.0417634402709	-594.9945931969047	2065.249093437326	791.2890540112859	-624.6248930333195	2050.8333776943355	791.5086306222952	-638.2230134829053	2033.8172803424814	794.250924795759	-646.2248906679428	2071.54625989315	797.8856477760836	-546.8600544482613	2074.2917466125946	784.1630323927367	-590.7140899654876	2062.024768348389	776.7944323465126	-622.6246873742215	2044.5394995202428	776.5357143834918	-638.8278269629941	2025.8754756438059	779.2817296622192	-647.4848846058367	2070.7045680371	792.0830570194507	-544.2746576795682	2072.8342022522284	774.6575588151011	-581.4295767901841	2061.937878062266	767.1416717325701	-608.7422102499935	2044.9633999960042	766.3114647912378	-624.1054827857253	2027.3630716169985	768.6182569526634	-632.1192748754423	2068.556393553453	785.9091195591509	-539.6976870518481	2069.6449822118484	766.0138289290388	-571.0806686269439	2060.5904555112097	758.3657956084326	-592.0081005547777	2048.0499830981244	756.9719552577802	-602.7577278622826	2032.3673221097242	758.561723966074	-609.5939802743383	1862.0756051179458	1202.2986741393624	-96.5338480089849	1809.5623568129486	1134.3640491184617	5.070647999883891	1951.0339172848412	978.6441667463017	-177.47094227243284	2053.8045662916047	869.402097812597	-400.5569495189204	2083.2664444366874	880.3894449634361	-419.7181939744837	2122.7478836252585	871.7487970819026	-428.68521753260075	2149.3377287058393	862.585482257895	-435.80114641868835	2170.7303030649027	852.2551346615979	-442.47876258142617	2081.911336516293	871.2029483993168	-426.30767028529493	2125.0354593318298	857.5961348251863	-461.49588811894586	2159.3931458816614	842.342890103595	-476.8594930307994	2180.530629652764	833.3034813264593	-477.9626642986326	2197.875908551517	826.1207439284457	-473.1770705661614	2078.1554790699206	862.8450821788751	-427.01902879126146	2118.1846573716307	845.0542897281238	-461.72792987167605	2155.045695668556	827.3440705886381	-478.46100627129977	2180.244961667382	815.9268708454391	-479.77671700450315	2199.076862336598	807.8189984964896	-474.53300140517604	2074.3600145263194	857.3229373477886	-426.7289991322872	2106.8180656400727	836.688958958013	-457.89153879082755	2138.2397089018546	820.1908663412095	-472.3879087946258	2162.1711575647314	808.6141948320258	-473.61014222623805	2179.7000771122284	800.7235405479645	-468.6575019802556	2069.0629612106077	851.0732301921906	-424.5454301912349	2095.442410115853	828.409537003826	-452.1462099921748	2119.3601134141654	813.6316614738986	-463.4800282379704	2136.214256370109	804.4296715095395	-464.23882145233017	2151.3958183880704	797.0036391853231	-459.7752160363943
93	0.383	2198.941	914.58397	126.699	2255.242128431147	898.110491375298	53.470053479394615	2160.3336746706564	501.3171792671011	-41.730780066432864	2141.431937176218	109.78189483075656	-117.0397910653092	1989.7576946288189	33.02658895793085	-29.622599267810923	2157.1854588311107	904.9604898339863	211.17837537481884	2065.917885078193	503.11559293762264	286.04046342658125	1994.0013139459643	78.78005842064722	377.86943823559	1872.3200692004593	-3.497098730077646	255.54451366864578	2131.1868922031945	1031.6865248912522	79.77822926332665	2068.883097220051	1087.9470715607881	30.81483615149336	2001.1561742043025	1139.421318447807	-23.996300126349333	1932.7803488734467	1176.9770684853845	-81.86737900710264	1858.5935506986586	1217.5929547671215	-142.00967096270392	1789.354664055524	1254.9238057310347	-194.1530563999876	1649.623240674562	1331.7091227367666	-200.72027365371014	1904.1876669263734	1206.012583494814	-146.2681344689039	1967.004766944673	1197.9507524217233	-262.67741715502115	2050.8685471742106	936.1347518338655	-302.1922860504194	2062.5653469648487	805.0484150720338	-516.5366049133181	2069.8681988988233	817.1743220358602	-545.4963274141152	2053.2423467543513	821.4136315335762	-574.751878313403	2041.4881176908414	821.1058336891941	-595.0114102203091	2031.5385632186787	818.0603670221636	-611.8033633626084	2072.4305845110616	806.4595538071503	-548.2024010106702	2075.9258766004154	797.1348230751094	-594.1912710580625	2064.8803048599216	791.3985849879283	-623.7494044643316	2050.4873447861305	791.6247578421111	-637.3076000100915	2033.4978069422868	794.3700506516036	-645.2797657534278	2071.1896314216456	797.9531067061341	-546.1753334725371	2073.931453282587	784.2566970020448	-589.9357408723847	2061.6866291889187	776.9060888282327	-621.7698441645481	2044.2299286187986	776.6553386497226	-637.9258993693243	2025.595514978098	779.4046399834066	-646.5509771592448	2070.360111061702	792.1504465327444	-543.6028714172327	2072.496313830707	774.7484558830216	-580.6851162883058	2061.6216918514856	767.24822888151	-607.933533820002	2044.6760436230163	766.4256960615144	-623.252691345166	2027.1041545727878	768.7355748892139	-631.2370266177708	2068.2282670203804	785.9754341701574	-539.0437998037112	2069.332125448126	766.1011495502198	-570.3711348824886	2060.298683601297	758.4655200823427	-591.251289633538	2047.7810331925582	757.0772110548293	-601.9707443694663	2032.1245970147127	758.6696734651701	-608.7820593664671	1862.1646301952833	1202.3396037705186	-96.5941713313234	1809.6969412349206	1134.5883405746222	5.01287409583332	1950.9050090663902	978.816672163784	-177.28122023299514	2052.65277491977	867.7407203708485	-399.18514381560664	2082.03153544907	878.6650974743576	-418.351395849275	2121.454066136968	870.0094514337892	-427.3094526020045	2148.0070159596553	860.8373125368846	-434.4084213726666	2169.372364701745	850.5009930966777	-441.06272717507267	2080.6810832739166	869.4731456868815	-424.90057546774824	2123.711515811535	855.7915356865326	-460.00517286824027	2158.0174485476687	840.5155421485154	-475.32301460855064	2179.1340423828333	831.4825603215072	-476.41978263306765	2196.4696486600815	824.3190163687651	-471.64375863766816	2076.940356882518	861.1236840588043	-425.58627528741937	2116.8863309937415	843.2644737379653	-460.19973523321715	2153.693213938343	825.5308218000872	-476.8797821939467	2178.868391349016	814.1220412204394	-478.1862795577973	2197.690246213945	806.0354907037662	-472.95231041484635	2073.1578457636524	855.6090844509044	-425.28003888869114	2105.552196922339	834.9194561157707	-456.3423558725939	2136.9291388359416	818.4024659684594	-470.78948718359254	2160.838678468967	806.8347285135699	-472.00123776257135	2178.3587838927438	798.9645125164833	-467.05700123948805	2067.8794425684255	849.3726183421036	-423.0818954145374	2094.2115077710473	826.6650073099811	-450.58102092355074	2118.0975964603404	811.8746330392337	-461.87114888790734	2134.937781340042	802.6804319133925	-462.6202300160388	2150.1126988517535	795.2732356612571	-458.16288217100373
